<svg width="840" height="400" viewBox="0 0 840 400" role="img" xmlns="http://www.w3.org/2000/svg"><title>maxmode-now's night sky</title><desc>GitHub contributions of the last 30 days drawn as a night sky. Each star is a day, the constellation is the longest streak, the moon shows its real phase.</desc><defs><linearGradient id="sky" x1="0" y1="0" x2="0" y2="1"><stop offset="0" stop-color="#060a1e"/><stop offset="0.6" stop-color="#171240"/><stop offset="1" stop-color="#3a2158"/></linearGradient><clipPath id="frame"><rect x="0" y="0" width="840" height="400" rx="12"/></clipPath></defs><rect x="0" y="0" width="840" height="400" rx="12" fill="url(#sky)"/><path d="M50 40 C170 95, 290 30, 430 80 C360 115, 200 135, 75 98 Z" fill="#2dd4a0" opacity="0.07"/><path d="M110 62 C230 110, 360 58, 500 100 C420 132, 250 148, 135 112 Z" fill="#7f77dd" opacity="0.07"/><circle cx="471.0" cy="197.0" r="0.9" fill="#8a93c4" opacity="0.35"></circle><circle cx="337.4" cy="124.6" r="0.9" fill="#8a93c4" opacity="0.35"></circle><circle cx="597.1" cy="195.2" r="0.9" fill="#8a93c4" opacity="0.35"></circle><circle cx="475.2" cy="139.9" r="0.9" fill="#8a93c4" opacity="0.35"></circle><circle cx="58.5" cy="193.8" r="0.9" fill="#8a93c4" opacity="0.35"></circle><circle cx="47.6" cy="224.8" r="0.9" fill="#8a93c4" opacity="0.35"></circle><circle cx="680.4" cy="232.1" r="0.9" fill="#8a93c4" opacity="0.35"></circle><circle cx="520.0" cy="129.8" r="0.9" fill="#8a93c4" opacity="0.35"></circle><circle cx="155.0" cy="167.2" r="0.9" fill="#8a93c4" opacity="0.35"></circle><circle cx="529.9" cy="197.3" r="0.9" fill="#8a93c4" opacity="0.35"></circle><circle cx="212.9" cy="124.0" r="0.9" fill="#8a93c4" opacity="0.35"></circle><circle cx="651.7" cy="191.1" r="0.9" fill="#8a93c4" opacity="0.35"></circle><circle cx="228.2" cy="48.4" r="0.9" fill="#8a93c4" opacity="0.35"></circle><circle cx="516.9" cy="133.3" r="0.9" fill="#8a93c4" opacity="0.35"></circle><circle cx="436.6" cy="103.0" r="0.9" fill="#8a93c4" opacity="0.35"></circle><circle cx="507.6" cy="132.3" r="0.9" fill="#8a93c4" opacity="0.35"></circle><circle cx="380.1" cy="105.2" r="0.9" fill="#8a93c4" opacity="0.35"></circle><circle cx="528.8" cy="174.9" r="0.9" fill="#8a93c4" opacity="0.35"></circle><circle cx="389.9" cy="89.6" r="0.9" fill="#8a93c4" opacity="0.35"></circle><circle cx="65.9" cy="151.0" r="0.9" fill="#8a93c4" opacity="0.35"></circle><circle cx="618.1" cy="83.1" r="0.9" fill="#8a93c4" opacity="0.35"></circle><circle cx="779.9" cy="131.6" r="0.9" fill="#8a93c4" opacity="0.35"></circle><circle cx="207.6" cy="184.5" r="0.9" fill="#8a93c4" opacity="0.35"></circle><circle cx="627.8" cy="62.3" r="0.9" fill="#8a93c4" opacity="0.35"></circle><circle cx="294.9" cy="193.1" r="0.9" fill="#8a93c4" opacity="0.35"></circle><circle cx="195.0" cy="78.3" r="0.9" fill="#8a93c4" opacity="0.35"></circle><circle cx="464.7" cy="108.0" r="0.9" fill="#8a93c4" opacity="0.35"></circle><circle cx="40.1" cy="137.5" r="0.9" fill="#8a93c4" opacity="0.35"></circle><circle cx="360.6" cy="130.5" r="0.9" fill="#8a93c4" opacity="0.35"></circle><circle cx="328.8" cy="176.0" r="3.1" fill="#e8ecff"><animate attributeName="opacity" values="1;0.4;1" dur="4.3s" repeatCount="indefinite"/></circle><clipPath id="moonclip"><circle cx="752" cy="72" r="26"/></clipPath><circle cx="752" cy="72" r="26" fill="#f2ecd4"/><circle cx="801.1" cy="72" r="26" fill="#0d0f2e" clip-path="url(#moonclip)"/><g><line x1="179" y1="116" x2="249" y2="144" stroke="#ffffff" stroke-width="1.4" stroke-linecap="round" opacity="0"><animate attributeName="opacity" values="0;0.9;0" dur="5s" begin="1.5s" repeatCount="indefinite"/></line><animateTransform attributeName="transform" type="translate" values="0 0; 80 32; 80 32" dur="5s" begin="1.5s" repeatCount="indefinite"/></g><g clip-path="url(#frame)"><path d="M0 400 L0 310 L120 273 L240 295 L360 272 L480 321 L600 279 L720 304 L840 300 L840 400 Z" fill="#12142f"/><path d="M0 400 L0 348 L420 218 L840 344 L840 400 Z" fill="#0a0b1e"><title>peaks, left to right: JavaScript 100%</title></path><circle cx="488" cy="363" r="1.4" fill="#f5c26b"><animate attributeName="opacity" values="0.2;1;0.2" dur="2.1s" repeatCount="indefinite"/></circle><circle cx="330" cy="357" r="1.4" fill="#f5c26b"><animate attributeName="opacity" values="0.2;1;0.2" dur="2.6s" repeatCount="indefinite"/></circle><circle cx="279" cy="348" r="1.4" fill="#f5c26b"><animate attributeName="opacity" values="0.2;1;0.2" dur="2.1s" repeatCount="indefinite"/></circle></g><text x="26" y="380" font-size="13" font-family="Segoe UI, Helvetica, Arial, sans-serif" fill="#b9b4d8">@maxmode-now · last 30 days · 7 commits · streak 1d</text><text x="814" y="380" font-size="12" font-family="Segoe UI, Helvetica, Arial, sans-serif" fill="#7d78a3" text-anchor="end">night-sky-contrib</text></svg>