<svg width="840" height="400" viewBox="0 0 840 400" role="img" xmlns="http://www.w3.org/2000/svg"><title>maxmode-now's night sky</title><desc>GitHub contributions of the last 30 days drawn as a night sky. Each star is a day, the constellation is the longest streak, the moon shows its real phase.</desc><defs><linearGradient id="sky" x1="0" y1="0" x2="0" y2="1"><stop offset="0" stop-color="#060a1e"/><stop offset="0.6" stop-color="#151238"/><stop offset="1" stop-color="#472a4e"/></linearGradient><clipPath id="frame"><rect x="0" y="0" width="840" height="400" rx="12"/></clipPath></defs><rect x="0" y="0" width="840" height="400" rx="12" fill="url(#sky)"/><path d="M50 40 C170 95, 290 30, 430 80 C360 115, 200 135, 75 98 Z" fill="#2dd4a0" opacity="0.07"/><path d="M110 62 C230 110, 360 58, 500 100 C420 132, 250 148, 135 112 Z" fill="#7f77dd" opacity="0.07"/><circle cx="431.7" cy="195.4" r="0.9" fill="#8a93c4" opacity="0.35"></circle><circle cx="664.0" cy="172.1" r="0.9" fill="#8a93c4" opacity="0.35"></circle><circle cx="458.4" cy="180.2" r="0.9" fill="#8a93c4" opacity="0.35"></circle><circle cx="586.7" cy="80.7" r="0.9" fill="#8a93c4" opacity="0.35"></circle><circle cx="83.5" cy="173.2" r="0.9" fill="#8a93c4" opacity="0.35"></circle><circle cx="783.5" cy="158.4" r="0.9" fill="#8a93c4" opacity="0.35"></circle><circle cx="474.1" cy="227.6" r="0.9" fill="#8a93c4" opacity="0.35"></circle><circle cx="439.0" cy="161.0" r="0.9" fill="#8a93c4" opacity="0.35"></circle><circle cx="634.0" cy="92.3" r="0.9" fill="#8a93c4" opacity="0.35"></circle><circle cx="544.5" cy="196.1" r="0.9" fill="#8a93c4" opacity="0.35"></circle><circle cx="589.5" cy="78.1" r="0.9" fill="#8a93c4" opacity="0.35"></circle><circle cx="777.6" cy="118.7" r="0.9" fill="#8a93c4" opacity="0.35"></circle><circle cx="717.5" cy="123.6" r="0.9" fill="#8a93c4" opacity="0.35"></circle><circle cx="550.2" cy="214.2" r="0.9" fill="#8a93c4" opacity="0.35"></circle><circle cx="83.8" cy="87.3" r="0.9" fill="#8a93c4" opacity="0.35"></circle><circle cx="174.3" cy="108.6" r="0.9" fill="#8a93c4" opacity="0.35"></circle><circle cx="621.0" cy="161.7" r="0.9" fill="#8a93c4" opacity="0.35"></circle><circle cx="166.7" cy="206.2" r="0.9" fill="#8a93c4" opacity="0.35"></circle><circle cx="510.6" cy="74.4" r="0.9" fill="#8a93c4" opacity="0.35"></circle><circle cx="115.9" cy="203.7" r="0.9" fill="#8a93c4" opacity="0.35"></circle><circle cx="498.6" cy="106.5" r="0.9" fill="#8a93c4" opacity="0.35"></circle><circle cx="655.6" cy="210.2" r="0.9" fill="#8a93c4" opacity="0.35"></circle><circle cx="576.9" cy="172.3" r="0.9" fill="#8a93c4" opacity="0.35"></circle><circle cx="123.0" cy="124.2" r="0.9" fill="#8a93c4" opacity="0.35"></circle><circle cx="463.8" cy="111.4" r="0.9" fill="#8a93c4" opacity="0.35"></circle><circle cx="475.2" cy="94.6" r="0.9" fill="#8a93c4" opacity="0.35"></circle><circle cx="138.6" cy="53.1" r="0.9" fill="#8a93c4" opacity="0.35"></circle><circle cx="255.9" cy="155.1" r="0.9" fill="#8a93c4" opacity="0.35"></circle><circle cx="516.9" cy="232.3" r="3.4" fill="#e8ecff"><animate attributeName="opacity" values="1;0.4;1" dur="3.9s" repeatCount="indefinite"/></circle><circle cx="740.0" cy="229.5" r="0.9" fill="#8a93c4" opacity="0.35"></circle><clipPath id="moonclip"><circle cx="752" cy="72" r="26"/></clipPath><circle cx="752" cy="72" r="26" fill="#f2ecd4"/><circle cx="797.5" cy="72" r="26" fill="#0d0f2e" clip-path="url(#moonclip)"/><g><line x1="367" y1="172" x2="437" y2="200" stroke="#ffffff" stroke-width="1.4" stroke-linecap="round" opacity="0"><animate attributeName="opacity" values="0;0.9;0" dur="5s" begin="1.5s" repeatCount="indefinite"/></line><animateTransform attributeName="transform" type="translate" values="0 0; 80 32; 80 32" dur="5s" begin="1.5s" repeatCount="indefinite"/></g><g clip-path="url(#frame)"><rect x="29" y="311" width="35" height="89" fill="#1a1c3d"/><rect x="94" y="300" width="53" height="100" fill="#1a1c3d"/><rect x="183" y="304" width="57" height="96" fill="#1a1c3d"/><rect x="287" y="359" width="45" height="41" fill="#1a1c3d"/><rect x="360" y="355" width="53" height="45" fill="#1a1c3d"/><rect x="434" y="354" width="39" height="46" fill="#1a1c3d"/><rect x="520" y="326" width="49" height="74" fill="#1a1c3d"/><rect x="614" y="338" width="56" height="62" fill="#1a1c3d"/><rect x="726" y="334" width="52" height="66" fill="#1a1c3d"/><g><title>buildings, left to right: JavaScript 100%</title><rect x="371" y="195" width="98" height="205" fill="#0a0c22"/><rect x="379" y="207" width="5" height="6" fill="#23264a"></rect><rect x="395" y="207" width="5" height="6" fill="#23264a"></rect><rect x="411" y="207" width="5" height="6" fill="#23264a"></rect><rect x="427" y="207" width="5" height="6" fill="#23264a"></rect><rect x="443" y="207" width="5" height="6" fill="#23264a"></rect><rect x="379" y="224" width="5" height="6" fill="#23264a"></rect><rect x="395" y="224" width="5" height="6" fill="#23264a"></rect><rect x="411" y="224" width="5" height="6" fill="#23264a"></rect><rect x="427" y="224" width="5" height="6" fill="#23264a"></rect><rect x="443" y="224" width="5" height="6" fill="#23264a"></rect><rect x="379" y="241" width="5" height="6" fill="#23264a"></rect><rect x="395" y="241" width="5" height="6" fill="#23264a"></rect><rect x="411" y="241" width="5" height="6" fill="#f5c26b"></rect><rect x="427" y="241" width="5" height="6" fill="#23264a"></rect><rect x="443" y="241" width="5" height="6" fill="#23264a"></rect><rect x="379" y="258" width="5" height="6" fill="#23264a"></rect><rect x="395" y="258" width="5" height="6" fill="#23264a"></rect><rect x="411" y="258" width="5" height="6" fill="#23264a"></rect><rect x="427" y="258" width="5" height="6" fill="#23264a"></rect><rect x="443" y="258" width="5" height="6" fill="#23264a"></rect><rect x="379" y="275" width="5" height="6" fill="#23264a"></rect><rect x="395" y="275" width="5" height="6" fill="#23264a"></rect><rect x="411" y="275" width="5" height="6" fill="#f5c26b"></rect><rect x="427" y="275" width="5" height="6" fill="#23264a"></rect><rect x="443" y="275" width="5" height="6" fill="#23264a"></rect><rect x="379" y="292" width="5" height="6" fill="#23264a"></rect><rect x="395" y="292" width="5" height="6" fill="#23264a"></rect><rect x="411" y="292" width="5" height="6" fill="#23264a"></rect><rect x="427" y="292" width="5" height="6" fill="#23264a"></rect><rect x="443" y="292" width="5" height="6" fill="#23264a"></rect><rect x="379" y="309" width="5" height="6" fill="#23264a"></rect><rect x="395" y="309" width="5" height="6" fill="#23264a"></rect><rect x="411" y="309" width="5" height="6" fill="#23264a"></rect><rect x="427" y="309" width="5" height="6" fill="#f5c26b"></rect><rect x="443" y="309" width="5" height="6" fill="#23264a"></rect><rect x="379" y="326" width="5" height="6" fill="#23264a"></rect><rect x="395" y="326" width="5" height="6" fill="#23264a"></rect><rect x="411" y="326" width="5" height="6" fill="#23264a"></rect><rect x="427" y="326" width="5" height="6" fill="#23264a"></rect><rect x="443" y="326" width="5" height="6" fill="#23264a"></rect><rect x="379" y="343" width="5" height="6" fill="#23264a"></rect><rect x="395" y="343" width="5" height="6" fill="#23264a"></rect><rect x="411" y="343" width="5" height="6" fill="#23264a"></rect><rect x="427" y="343" width="5" height="6" fill="#23264a"></rect><rect x="443" y="343" width="5" height="6" fill="#23264a"></rect><rect x="379" y="360" width="5" height="6" fill="#23264a"></rect><rect x="395" y="360" width="5" height="6" fill="#23264a"></rect><rect x="411" y="360" width="5" height="6" fill="#23264a"></rect><rect x="427" y="360" width="5" height="6" fill="#23264a"></rect><rect x="443" y="360" width="5" height="6" fill="#23264a"></rect></g><line x1="420" y1="195" x2="420" y2="179" stroke="#0a0c22" stroke-width="2"/><circle cx="420" cy="179" r="2" fill="#e24b4a"><animate attributeName="opacity" values="1;0.15;1" dur="2s" repeatCount="indefinite"/></circle></g><text x="26" y="380" font-size="13" font-family="Segoe UI, Helvetica, Arial, sans-serif" fill="#b9b4d8">@maxmode-now · last 30 days · 8 commits · streak 1d</text><text x="814" y="380" font-size="12" font-family="Segoe UI, Helvetica, Arial, sans-serif" fill="#7d78a3" text-anchor="end">night-sky-contrib</text></svg>