<svg width="840" height="400" viewBox="0 0 840 400" role="img" xmlns="http://www.w3.org/2000/svg"><title>maxmode-now's night sky</title><desc>GitHub contributions of the last 30 days drawn as a night sky. Each star is a day, the constellation is the longest streak, the moon shows its real phase.</desc><defs><linearGradient id="sky" x1="0" y1="0" x2="0" y2="1"><stop offset="0" stop-color="#060a1e"/><stop offset="0.6" stop-color="#151238"/><stop offset="1" stop-color="#472a4e"/></linearGradient><clipPath id="frame"><rect x="0" y="0" width="840" height="400" rx="12"/></clipPath></defs><rect x="0" y="0" width="840" height="400" rx="12" fill="url(#sky)"/><circle cx="431.7" cy="195.4" r="0.9" fill="#8a93c4" opacity="0.35"></circle><circle cx="664.0" cy="172.1" r="0.9" fill="#8a93c4" opacity="0.35"></circle><circle cx="458.4" cy="180.2" r="0.9" fill="#8a93c4" opacity="0.35"></circle><circle cx="586.7" cy="80.7" r="0.9" fill="#8a93c4" opacity="0.35"></circle><circle cx="83.5" cy="173.2" r="0.9" fill="#8a93c4" opacity="0.35"></circle><circle cx="783.5" cy="158.4" r="0.9" fill="#8a93c4" opacity="0.35"></circle><circle cx="474.1" cy="227.6" r="0.9" fill="#8a93c4" opacity="0.35"></circle><circle cx="439.0" cy="161.0" r="0.9" fill="#8a93c4" opacity="0.35"></circle><circle cx="634.0" cy="92.3" r="0.9" fill="#8a93c4" opacity="0.35"></circle><circle cx="544.5" cy="196.1" r="0.9" fill="#8a93c4" opacity="0.35"></circle><circle cx="589.5" cy="78.1" r="0.9" fill="#8a93c4" opacity="0.35"></circle><circle cx="777.6" cy="118.7" r="0.9" fill="#8a93c4" opacity="0.35"></circle><circle cx="717.5" cy="123.6" r="0.9" fill="#8a93c4" opacity="0.35"></circle><circle cx="550.2" cy="214.2" r="0.9" fill="#8a93c4" opacity="0.35"></circle><circle cx="83.8" cy="87.3" r="0.9" fill="#8a93c4" opacity="0.35"></circle><circle cx="174.3" cy="108.6" r="0.9" fill="#8a93c4" opacity="0.35"></circle><circle cx="621.0" cy="161.7" r="0.9" fill="#8a93c4" opacity="0.35"></circle><circle cx="166.7" cy="206.2" r="0.9" fill="#8a93c4" opacity="0.35"></circle><circle cx="510.6" cy="74.4" r="3.4" fill="#e8ecff"><animate attributeName="opacity" values="1;0.4;1" dur="3.9s" repeatCount="indefinite"/></circle><circle cx="115.9" cy="203.7" r="0.9" fill="#8a93c4" opacity="0.35"></circle><circle cx="498.6" cy="106.5" r="0.9" fill="#8a93c4" opacity="0.35"></circle><circle cx="655.6" cy="210.2" r="0.9" fill="#8a93c4" opacity="0.35"></circle><circle cx="576.9" cy="172.3" r="1.8" fill="#cfd6ff"></circle><circle cx="123.0" cy="124.2" r="0.9" fill="#8a93c4" opacity="0.35"></circle><circle cx="463.8" cy="111.4" r="0.9" fill="#8a93c4" opacity="0.35"></circle><circle cx="475.2" cy="94.6" r="0.9" fill="#8a93c4" opacity="0.35"></circle><circle cx="138.6" cy="53.1" r="2.5" fill="#cfd6ff"><animate attributeName="opacity" values="1;0.4;1" dur="4.6s" repeatCount="indefinite"/></circle><circle cx="255.9" cy="155.1" r="0.9" fill="#8a93c4" opacity="0.35"></circle><circle cx="516.9" cy="232.3" r="0.9" fill="#8a93c4" opacity="0.35"></circle><circle cx="740.0" cy="229.5" r="0.9" fill="#8a93c4" opacity="0.35"></circle><clipPath id="moonclip"><circle cx="752" cy="72" r="26"/></clipPath><circle cx="752" cy="72" r="26" fill="#f2ecd4"/><circle cx="752.6" cy="72" r="26" fill="#0d0f2e" clip-path="url(#moonclip)"/><g><line x1="361" y1="14" x2="431" y2="42" stroke="#ffffff" stroke-width="1.4" stroke-linecap="round" opacity="0"><animate attributeName="opacity" values="0;0.9;0" dur="5s" begin="1.5s" repeatCount="indefinite"/></line><animateTransform attributeName="transform" type="translate" values="0 0; 80 32; 80 32" dur="5s" begin="1.5s" repeatCount="indefinite"/></g><g clip-path="url(#frame)"><rect x="24" y="357" width="39" height="43" fill="#1a1c3d"/><rect x="122" y="308" width="44" height="92" fill="#1a1c3d"/><rect x="221" y="299" width="49" height="101" fill="#1a1c3d"/><rect x="292" y="331" width="39" height="69" fill="#1a1c3d"/><rect x="354" y="310" width="34" height="90" fill="#1a1c3d"/><rect x="412" y="346" width="49" height="54" fill="#1a1c3d"/><rect x="504" y="318" width="48" height="82" fill="#1a1c3d"/><rect x="586" y="300" width="55" height="100" fill="#1a1c3d"/><rect x="677" y="312" width="49" height="88" fill="#1a1c3d"/><rect x="769" y="300" width="59" height="100" fill="#1a1c3d"/><g><title>buildings, left to right: TypeScript 69% · JavaScript 27% · CSS 3% · HTML 2%</title><rect x="125" y="195" width="86" height="205" fill="#0a0c22"/><rect x="133" y="207" width="5" height="6" fill="#23264a"></rect><rect x="149" y="207" width="5" height="6" fill="#23264a"></rect><rect x="165" y="207" width="5" height="6" fill="#23264a"></rect><rect x="181" y="207" width="5" height="6" fill="#23264a"></rect><rect x="133" y="224" width="5" height="6" fill="#23264a"></rect><rect x="149" y="224" width="5" height="6" fill="#23264a"></rect><rect x="165" y="224" width="5" height="6" fill="#23264a"></rect><rect x="181" y="224" width="5" height="6" fill="#23264a"></rect><rect x="133" y="241" width="5" height="6" fill="#f5c26b"></rect><rect x="149" y="241" width="5" height="6" fill="#23264a"></rect><rect x="165" y="241" width="5" height="6" fill="#23264a"></rect><rect x="181" y="241" width="5" height="6" fill="#23264a"></rect><rect x="133" y="258" width="5" height="6" fill="#23264a"></rect><rect x="149" y="258" width="5" height="6" fill="#23264a"></rect><rect x="165" y="258" width="5" height="6" fill="#23264a"></rect><rect x="181" y="258" width="5" height="6" fill="#23264a"></rect><rect x="133" y="275" width="5" height="6" fill="#23264a"></rect><rect x="149" y="275" width="5" height="6" fill="#23264a"></rect><rect x="165" y="275" width="5" height="6" fill="#f5c26b"></rect><rect x="181" y="275" width="5" height="6" fill="#23264a"></rect><rect x="133" y="292" width="5" height="6" fill="#23264a"></rect><rect x="149" y="292" width="5" height="6" fill="#23264a"></rect><rect x="165" y="292" width="5" height="6" fill="#23264a"></rect><rect x="181" y="292" width="5" height="6" fill="#23264a"></rect><rect x="133" y="309" width="5" height="6" fill="#23264a"></rect><rect x="149" y="309" width="5" height="6" fill="#23264a"></rect><rect x="165" y="309" width="5" height="6" fill="#23264a"></rect><rect x="181" y="309" width="5" height="6" fill="#23264a"></rect><rect x="133" y="326" width="5" height="6" fill="#23264a"></rect><rect x="149" y="326" width="5" height="6" fill="#f5c26b"></rect><rect x="165" y="326" width="5" height="6" fill="#23264a"></rect><rect x="181" y="326" width="5" height="6" fill="#23264a"></rect><rect x="133" y="343" width="5" height="6" fill="#23264a"></rect><rect x="149" y="343" width="5" height="6" fill="#23264a"></rect><rect x="165" y="343" width="5" height="6" fill="#23264a"></rect><rect x="181" y="343" width="5" height="6" fill="#23264a"></rect><rect x="133" y="360" width="5" height="6" fill="#23264a"></rect><rect x="149" y="360" width="5" height="6" fill="#23264a"></rect><rect x="165" y="360" width="5" height="6" fill="#23264a"></rect><rect x="181" y="360" width="5" height="6" fill="#23264a"></rect><rect x="302" y="271" width="69" height="129" fill="#0a0c22"/><rect x="310" y="283" width="5" height="6" fill="#23264a"></rect><rect x="326" y="283" width="5" height="6" fill="#23264a"></rect><rect x="342" y="283" width="5" height="6" fill="#23264a"></rect><rect x="310" y="300" width="5" height="6" fill="#23264a"></rect><rect x="326" y="300" width="5" height="6" fill="#23264a"></rect><rect x="342" y="300" width="5" height="6" fill="#23264a"></rect><rect x="310" y="317" width="5" height="6" fill="#23264a"></rect><rect x="326" y="317" width="5" height="6" fill="#23264a"></rect><rect x="342" y="317" width="5" height="6" fill="#23264a"></rect><rect x="310" y="334" width="5" height="6" fill="#23264a"></rect><rect x="326" y="334" width="5" height="6" fill="#f5c26b"></rect><rect x="342" y="334" width="5" height="6" fill="#23264a"></rect><rect x="310" y="351" width="5" height="6" fill="#23264a"></rect><rect x="326" y="351" width="5" height="6" fill="#23264a"></rect><rect x="342" y="351" width="5" height="6" fill="#23264a"></rect><rect x="310" y="368" width="5" height="6" fill="#23264a"></rect><rect x="326" y="368" width="5" height="6" fill="#23264a"></rect><rect x="342" y="368" width="5" height="6" fill="#f5c26b"></rect><rect x="474" y="337" width="59" height="63" fill="#0a0c22"/><rect x="482" y="349" width="5" height="6" fill="#23264a"></rect><rect x="498" y="349" width="5" height="6" fill="#23264a"></rect><rect x="482" y="366" width="5" height="6" fill="#23264a"></rect><rect x="498" y="366" width="5" height="6" fill="#f5c26b"></rect><rect x="643" y="341" width="59" height="59" fill="#0a0c22"/><rect x="651" y="353" width="5" height="6" fill="#f5c26b"></rect><rect x="667" y="353" width="5" height="6" fill="#23264a"></rect><rect x="651" y="370" width="5" height="6" fill="#23264a"></rect><rect x="667" y="370" width="5" height="6" fill="#23264a"></rect></g><line x1="168" y1="195" x2="168" y2="179" stroke="#0a0c22" stroke-width="2"/><circle cx="168" cy="179" r="2" fill="#e24b4a"><animate attributeName="opacity" values="1;0.15;1" dur="2s" repeatCount="indefinite"/></circle></g><text x="26" y="380" font-size="13" font-family="Segoe UI, Helvetica, Arial, sans-serif" fill="#b9b4d8">@maxmode-now · last 30 days · 13 commits · streak 0d</text><text x="814" y="380" font-size="12" font-family="Segoe UI, Helvetica, Arial, sans-serif" fill="#7d78a3" text-anchor="end">night-sky-contrib</text></svg>